<svg version="1.0" xmlns="http://www.w3.org/2000/svg"
 width="1049.000000pt" height="1049.000000pt" viewBox="0 0 1049.000000 1049.000000"
 preserveAspectRatio="xMidYMid meet">
<metadata>
Created by potrace 1.14, written by Peter Selinger 2001-2017
</metadata>
<g transform="translate(0.000000,1049.000000) scale(0.100000,-0.100000)"
fill="#000000" stroke="none">
<path d="M1159 10384 c-476 -86 -869 -432 -1013 -892 -60 -191 -56 111 -56
-4247 0 -4357 -4 -4057 56 -4246 128 -407 463 -737 869 -857 185 -55 -89 -52
4230 -52 4389 0 4056 -5 4256 61 431 140 746 479 867 931 l27 103 3 4015 c3
3676 1 4023 -14 4115 -78 480 -428 882 -893 1029 -190 60 112 56 -4255 55
-3345 -1 -4013 -3 -4077 -15z m4167 -1429 c13 -22 26 -47 30 -55 4 -8 35 -62
69 -120 59 -99 116 -199 173 -300 14 -25 33 -57 43 -71 10 -14 33 -55 52 -90
47 -89 77 -141 91 -159 7 -8 17 -26 24 -40 7 -14 16 -32 21 -40 34 -55 101
-172 101 -177 0 -4 6 -14 14 -22 7 -9 29 -45 48 -81 19 -36 58 -104 87 -152
28 -48 54 -95 58 -105 4 -10 17 -32 30 -49 13 -17 23 -35 23 -41 0 -5 13 -27
30 -49 16 -21 30 -42 30 -46 0 -7 152 -274 180 -318 6 -8 15 -26 21 -40 6 -14
16 -32 24 -40 7 -8 28 -42 46 -75 18 -33 43 -78 56 -100 12 -22 28 -51 35 -65
7 -14 15 -27 19 -30 3 -3 9 -12 12 -20 4 -8 18 -33 32 -55 13 -22 30 -51 37
-65 7 -14 29 -52 50 -86 21 -34 38 -64 38 -68 0 -4 11 -22 25 -40 14 -18 25
-36 25 -39 0 -4 18 -36 40 -72 22 -36 40 -69 40 -74 0 -5 6 -16 13 -23 12 -11
51 -79 107 -183 9 -16 31 -52 48 -80 18 -27 42 -68 53 -90 19 -38 39 -74 103
-181 142 -240 186 -315 186 -320 0 -5 58 -105 166 -286 19 -31 34 -61 34 -66
0 -6 3 -12 8 -14 4 -1 15 -16 24 -33 23 -42 116 -203 179 -310 29 -49 61 -107
71 -127 10 -20 22 -40 28 -43 6 -4 17 -21 25 -38 8 -18 25 -50 39 -72 24 -39
36 -61 87 -155 13 -25 27 -47 30 -50 3 -3 8 -12 12 -20 4 -8 20 -37 37 -65 16
-27 39 -69 52 -92 12 -24 26 -43 30 -43 4 0 8 -5 8 -11 0 -6 19 -43 42 -82 24
-40 49 -85 58 -102 8 -16 17 -32 20 -35 4 -3 23 -34 44 -70 20 -36 41 -72 46
-80 39 -68 97 -169 106 -185 6 -11 21 -38 34 -60 13 -22 32 -57 42 -77 10 -20
22 -39 26 -42 5 -3 27 -40 48 -83 21 -43 41 -80 44 -83 10 -10 99 -159 137
-230 16 -30 53 -94 81 -142 29 -48 52 -90 52 -94 0 -4 6 -15 14 -23 15 -17 42
-64 97 -166 17 -33 34 -62 38 -65 3 -3 16 -23 27 -45 12 -22 52 -92 88 -154
36 -63 66 -120 66 -127 0 -7 3 -14 8 -16 8 -4 62 -85 62 -94 0 -3 8 -18 18
-32 11 -15 36 -58 57 -97 21 -38 46 -82 56 -97 11 -14 19 -42 19 -62 l0 -36
-4360 0 -4360 0 0 36 c0 20 8 48 19 62 10 15 35 59 56 97 21 39 46 82 57 97
10 14 18 29 18 32 0 9 54 90 63 94 4 2 7 8 7 14 0 11 109 210 119 218 3 3 17
28 31 55 14 28 28 53 33 56 5 3 20 28 33 55 45 87 74 138 94 166 11 15 20 29
20 32 0 2 23 44 52 93 77 132 94 162 128 228 18 33 43 74 56 92 13 17 24 36
24 41 0 6 3 12 8 14 4 2 25 37 46 78 22 41 47 86 56 100 23 36 37 61 58 100
30 57 63 114 76 130 6 8 16 24 22 35 52 97 129 231 134 235 4 3 16 23 27 45
38 77 147 260 159 267 6 4 15 20 19 35 3 15 15 39 26 54 10 15 19 32 19 38 0
6 3 11 8 11 4 0 15 17 25 38 9 20 31 60 47 87 16 28 33 57 37 65 24 47 69 116
80 123 7 4 13 13 13 20 0 14 9 32 83 159 32 54 57 102 57 107 0 5 4 11 8 13 5
2 27 37 51 78 23 41 50 88 59 105 9 16 23 35 30 43 6 7 12 18 12 23 0 5 41 77
91 161 50 83 94 159 97 167 5 15 130 230 195 336 17 28 40 68 51 90 12 22 23
42 26 45 3 3 11 16 18 30 12 25 17 34 61 105 14 22 32 54 41 70 50 93 94 171
101 175 4 3 13 17 18 30 6 14 19 39 29 55 10 17 31 53 46 80 16 28 34 57 42
66 8 8 14 19 14 24 0 4 17 35 38 69 21 34 43 72 50 86 7 14 24 43 37 65 14 22
28 47 32 55 3 8 9 17 12 20 4 3 12 16 19 30 6 14 16 32 22 40 5 8 33 57 62
108 29 51 63 109 75 130 12 20 29 51 37 67 9 17 20 37 26 45 20 30 140 241
140 248 0 4 14 25 30 46 17 22 30 44 30 48 0 5 11 24 25 42 14 18 25 36 25 40
0 4 25 51 57 104 31 53 62 108 70 122 8 14 25 43 38 65 13 22 31 54 39 70 8
17 23 41 33 55 11 14 32 50 48 80 22 44 94 168 155 270 5 8 21 37 36 65 14 27
29 52 33 55 4 3 14 19 23 35 29 58 81 150 100 177 10 14 18 29 18 32 0 3 44
80 97 171 l97 166 60 -3 c58 -3 60 -4 82 -43z"/>
<path d="M5407 8123 c-12 -11 -8 -3579 4 -3673 5 -47 17 -95 24 -107 18 -27
67 -73 78 -73 4 0 26 -12 50 -27 23 -14 58 -36 77 -49 19 -12 76 -48 125 -80
50 -33 95 -61 100 -63 6 -2 39 -22 75 -46 36 -23 92 -59 125 -81 33 -21 70
-44 82 -51 12 -6 28 -16 35 -23 11 -9 159 -104 226 -145 30 -18 76 -48 131
-84 77 -51 91 -60 182 -116 107 -66 100 -61 204 -130 50 -33 98 -64 107 -70
53 -30 163 -99 172 -106 6 -5 47 -32 91 -60 44 -28 92 -60 107 -70 15 -11 30
-19 33 -19 3 0 30 -18 60 -40 30 -22 57 -40 61 -40 4 0 52 -30 107 -66 55 -36
107 -68 116 -72 9 -3 18 -8 21 -11 3 -4 37 -27 75 -51 39 -25 76 -50 83 -57 7
-7 18 -13 23 -13 5 0 22 -8 37 -19 28 -19 112 -73 237 -152 103 -65 106 -66
158 -95 26 -15 47 -31 47 -36 0 -4 5 -8 10 -8 6 0 33 -16 61 -36 28 -19 58
-38 67 -42 9 -4 49 -27 88 -52 38 -25 79 -51 90 -57 10 -7 31 -20 46 -28 l28
-15 -12 27 c-7 16 -15 30 -19 33 -3 3 -18 30 -33 60 -16 30 -48 91 -72 135
-24 44 -52 96 -61 115 -10 19 -21 37 -25 38 -5 2 -8 8 -8 12 0 15 -206 379
-221 390 -3 3 -10 16 -14 30 -4 14 -11 27 -15 30 -10 7 -100 158 -100 168 0 5
-31 59 -69 120 -38 62 -73 122 -77 134 -4 13 -10 25 -14 28 -9 6 -85 134 -135
225 -35 65 -78 139 -161 277 -19 31 -34 60 -34 65 0 6 -11 23 -25 39 -14 16
-25 32 -25 35 0 7 -106 197 -120 214 -4 6 -20 33 -35 60 -42 74 -66 116 -104
182 -19 32 -47 82 -63 110 -15 29 -44 77 -63 108 -19 30 -40 65 -45 77 -6 13
-28 52 -50 87 -22 34 -40 65 -40 68 0 3 -19 38 -43 77 -24 39 -47 78 -51 86
-4 8 -18 33 -31 55 -14 22 -30 51 -37 65 -7 14 -23 39 -35 56 -13 17 -23 33
-23 36 0 8 -90 167 -116 206 -12 18 -32 52 -44 75 -12 23 -32 58 -44 79 -11
20 -50 87 -86 149 -36 61 -77 133 -92 158 -16 25 -36 61 -45 79 -9 17 -20 32
-24 32 -4 0 -10 14 -14 30 -4 17 -10 30 -14 30 -4 0 -14 12 -21 28 -8 15 -39
71 -70 124 -30 54 -62 110 -70 125 -9 16 -28 47 -43 70 -15 24 -27 45 -27 47
0 9 -85 151 -92 154 -4 2 -8 8 -8 14 0 5 -20 42 -44 81 -24 40 -56 97 -72 127
-15 30 -30 57 -33 60 -10 9 -42 64 -48 83 -3 9 -9 17 -13 17 -4 0 -11 11 -14
24 -3 14 -12 31 -19 38 -7 7 -18 24 -25 38 -6 14 -25 48 -42 75 -16 28 -44 77
-61 110 -17 33 -34 62 -38 65 -4 3 -18 26 -31 53 -14 26 -28 47 -32 47 -5 0
-8 4 -8 10 0 5 -22 48 -50 95 -27 47 -52 95 -55 106 -4 10 -11 19 -16 19 -5 0
-9 5 -9 12 0 6 -6 19 -14 27 -7 9 -33 52 -56 96 -55 102 -85 147 -93 138z"/>
<path d="M5045 8069 c-16 -24 -36 -56 -45 -71 -44 -80 -95 -158 -102 -158 -4
0 -8 -5 -8 -11 0 -7 -21 -46 -46 -88 -25 -42 -51 -85 -57 -96 -7 -11 -14 -22
-17 -25 -3 -3 -16 -26 -29 -52 -13 -27 -27 -48 -31 -48 -4 0 -11 -12 -15 -27
-3 -15 -15 -39 -26 -54 -10 -15 -19 -32 -19 -38 0 -6 -3 -11 -8 -11 -4 0 -13
-15 -21 -32 -8 -18 -24 -47 -37 -65 -13 -17 -24 -36 -24 -42 0 -6 -4 -11 -10
-11 -5 0 -10 -6 -10 -13 0 -6 -25 -54 -55 -104 -30 -51 -55 -97 -55 -103 0 -5
-4 -10 -9 -10 -5 0 -15 -15 -22 -32 -7 -18 -31 -60 -51 -93 -21 -33 -41 -68
-44 -77 -4 -10 -10 -18 -14 -18 -5 0 -12 -10 -15 -22 -4 -13 -29 -60 -56 -105
-27 -45 -49 -87 -49 -93 0 -5 -4 -10 -9 -10 -5 0 -16 -18 -24 -39 -9 -22 -21
-42 -27 -46 -7 -4 -20 -26 -31 -49 -27 -58 -82 -154 -102 -176 -9 -11 -19 -31
-23 -45 -3 -14 -10 -25 -14 -25 -4 0 -13 -15 -21 -32 -7 -18 -15 -35 -19 -38
-4 -4 -39 -62 -90 -150 -5 -8 -24 -43 -42 -78 -18 -35 -41 -70 -50 -79 -10 -9
-18 -20 -18 -24 0 -5 -26 -54 -57 -109 -32 -55 -66 -115 -76 -133 -10 -17 -28
-50 -42 -72 -13 -22 -30 -53 -38 -70 -8 -16 -21 -36 -30 -44 -10 -7 -17 -17
-17 -22 0 -7 -63 -121 -137 -247 -11 -20 -28 -48 -35 -62 -8 -14 -45 -77 -83
-140 -70 -118 -104 -179 -137 -240 -22 -42 -36 -65 -64 -105 -11 -16 -23 -38
-27 -47 -3 -9 -33 -62 -66 -117 -34 -55 -61 -104 -61 -109 0 -5 -8 -20 -18
-33 -11 -13 -33 -50 -51 -82 -17 -32 -38 -65 -46 -74 -8 -8 -15 -19 -15 -24 0
-8 -43 -84 -139 -247 -18 -31 -47 -82 -64 -112 -46 -83 -119 -204 -127 -210
-4 -3 -11 -16 -15 -30 -4 -14 -16 -37 -26 -52 -11 -14 -19 -29 -19 -32 0 -3
-14 -25 -30 -48 -17 -22 -30 -47 -30 -55 0 -7 -4 -13 -9 -13 -5 0 -13 -10 -16
-22 -9 -29 -106 -192 -117 -196 -4 -2 -8 -9 -8 -15 0 -7 -25 -54 -55 -104 -30
-51 -55 -97 -55 -103 0 -5 -4 -10 -10 -10 -5 0 -10 -4 -10 -9 0 -9 -50 -103
-141 -269 -46 -83 -96 -175 -147 -267 -28 -49 -49 -91 -47 -93 1 -1 51 28 109
65 59 37 123 77 141 88 92 54 132 79 150 95 17 14 146 93 180 110 12 6 210
135 247 161 15 10 32 19 37 19 5 0 16 6 23 13 24 23 191 127 204 127 7 0 14 4
16 9 3 9 171 121 181 121 6 0 96 59 107 70 9 9 44 29 80 48 19 9 36 20 38 24
2 4 31 24 65 45 34 20 67 41 72 45 6 5 33 23 60 40 28 17 62 39 77 49 15 11
29 19 31 19 2 0 48 29 101 65 53 36 99 65 102 65 3 0 20 10 37 23 35 25 55 37
107 67 19 11 47 28 61 38 14 9 46 30 70 46 24 16 63 42 87 57 24 16 44 29 46
29 2 0 32 19 68 43 35 23 83 53 106 67 24 14 55 35 70 47 15 13 30 23 35 23 4
0 29 15 55 33 26 18 62 40 80 48 17 7 32 17 32 22 0 4 20 17 45 29 25 12 45
26 45 30 0 4 5 8 11 8 6 0 25 11 43 25 18 14 35 25 38 25 3 0 42 25 87 55 45
30 84 55 87 55 3 0 25 14 49 30 24 17 48 30 52 30 20 0 85 80 96 116 8 28 12
494 14 1659 2 891 2 1721 1 1844 l-3 225 -30 -45z"/>
<path d="M5419 3818 c-1 -73 -4 -196 -8 -273 -5 -122 6 -299 20 -308 29 -17
47 -29 109 -72 39 -27 101 -69 138 -92 36 -23 68 -46 71 -50 6 -8 32 -26 166
-111 44 -28 87 -56 95 -62 64 -42 91 -60 95 -60 5 0 96 -61 105 -70 3 -3 19
-12 35 -20 17 -8 35 -19 40 -23 6 -4 46 -31 90 -59 44 -28 118 -76 165 -107
47 -31 92 -59 101 -63 22 -9 150 -93 172 -112 9 -9 21 -16 25 -16 5 0 52 -29
106 -65 53 -36 100 -65 103 -65 9 0 117 -74 121 -82 2 -5 8 -8 14 -8 5 0 42
-21 81 -47 40 -26 83 -53 97 -60 14 -7 43 -24 65 -38 22 -14 47 -28 55 -32 8
-4 29 -17 46 -30 17 -13 36 -23 42 -23 6 0 15 -6 19 -12 4 -7 28 -24 53 -38
l45 -25 555 -2 555 -3 -39 35 c-22 19 -45 35 -53 35 -7 0 -13 3 -13 8 0 4 -17
16 -37 27 -21 11 -71 41 -111 67 -41 27 -77 48 -82 48 -5 0 -10 4 -12 8 -1 4
-21 18 -43 31 -52 31 -149 94 -155 102 -3 3 -25 17 -50 31 -25 14 -76 46 -114
72 -37 25 -71 46 -77 46 -5 0 -9 5 -9 11 0 5 -4 8 -9 5 -5 -3 -14 1 -21 9 -7
8 -17 15 -22 15 -5 0 -35 19 -66 42 -31 24 -66 48 -77 54 -37 20 -69 39 -109
67 -81 55 -146 97 -152 97 -2 0 -36 21 -75 48 -39 26 -85 56 -102 66 -54 34
-199 127 -252 162 -28 19 -54 34 -58 34 -4 0 -13 5 -20 10 -17 15 -179 120
-184 120 -2 0 -16 9 -31 19 -15 10 -54 36 -86 58 -33 21 -70 45 -82 53 -13 8
-56 35 -95 59 -40 24 -77 47 -83 52 -6 5 -45 30 -86 56 -112 69 -155 97 -158
106 -2 4 -8 7 -14 7 -5 0 -24 11 -42 25 -18 14 -36 25 -40 25 -3 0 -32 17 -64
38 -106 72 -169 112 -175 112 -3 0 -49 29 -104 65 -54 36 -111 73 -128 83 -16
10 -68 44 -115 74 -47 31 -95 61 -107 67 l-23 12 -1 -133z"/>
<path d="M5045 3931 c-6 -5 -24 -17 -42 -28 -17 -10 -96 -58 -174 -108 -78
-49 -157 -99 -175 -110 -27 -17 -136 -85 -193 -120 -9 -6 -42 -27 -73 -48 -31
-20 -60 -37 -64 -37 -4 0 -21 -11 -38 -24 -17 -13 -41 -26 -52 -30 -12 -3 -29
-15 -39 -26 -10 -11 -22 -20 -26 -20 -5 0 -28 -13 -51 -29 -108 -73 -179 -117
-235 -146 -18 -9 -37 -23 -44 -31 -6 -8 -15 -14 -20 -14 -11 0 -103 -62 -107
-72 -2 -5 -8 -8 -14 -8 -5 0 -43 -22 -84 -50 -41 -27 -77 -50 -80 -50 -3 0
-20 -11 -38 -25 -18 -14 -38 -25 -44 -25 -7 0 -12 -4 -12 -10 0 -5 -6 -10 -14
-10 -8 0 -21 -6 -28 -13 -18 -17 -97 -69 -128 -84 -14 -7 -72 -44 -130 -82
-110 -74 -246 -159 -280 -176 -11 -5 -20 -13 -20 -17 0 -4 -17 -17 -37 -28
-44 -23 -48 -26 -163 -100 -47 -30 -86 -58 -88 -62 -2 -5 -9 -8 -17 -8 -7 0
-18 -7 -25 -15 -7 -8 -16 -12 -21 -9 -5 3 -9 0 -9 -5 0 -6 -5 -11 -11 -11 -6
0 -28 -13 -49 -30 -21 -16 -41 -30 -46 -30 -4 0 -15 -6 -23 -14 -9 -8 -38 -26
-66 -42 -27 -15 -52 -30 -55 -34 -6 -7 -94 -65 -155 -100 -22 -13 -42 -27 -45
-31 -3 -3 -21 -15 -40 -25 -19 -11 -56 -34 -82 -52 -26 -17 -51 -32 -56 -32
-5 0 -15 -6 -21 -13 -6 -8 -31 -24 -55 -37 -25 -12 -55 -33 -68 -47 l-22 -24
564 3 565 3 125 76 c69 41 136 82 150 90 14 8 27 16 30 19 10 10 101 70 106
70 3 0 20 11 38 25 18 14 36 25 40 25 4 0 12 5 19 10 7 6 48 34 92 62 44 27
92 59 107 69 15 11 30 19 33 19 3 0 38 22 78 49 152 102 197 131 203 131 3 0
23 13 43 28 20 16 58 42 85 58 73 44 76 46 154 97 40 26 75 47 78 47 5 0 66
42 74 51 4 5 123 79 168 104 10 6 40 26 67 46 28 20 64 44 80 53 17 9 42 24
57 34 14 9 65 42 113 72 222 141 251 160 272 175 40 28 46 73 50 413 4 271 3
322 -9 322 -8 0 -18 -4 -23 -9z"/>
<path d="M5180 2917 c-25 -13 -59 -32 -75 -44 -49 -34 -209 -138 -220 -142 -5
-2 -66 -41 -135 -86 -69 -45 -160 -104 -203 -131 -43 -27 -127 -80 -187 -119
-60 -38 -144 -92 -187 -120 -43 -27 -80 -52 -83 -55 -3 -4 -20 -13 -37 -21
-18 -8 -33 -17 -33 -21 0 -5 -6 -8 -14 -8 -8 0 -21 -6 -28 -13 -7 -7 -47 -35
-88 -61 -41 -27 -93 -60 -115 -75 -22 -15 -53 -33 -70 -41 -16 -8 -32 -18 -35
-21 -3 -3 -27 -19 -55 -34 -27 -16 -63 -39 -80 -52 -44 -33 -67 -51 -90 -68
-18 -13 200 -14 1795 -15 l1815 0 -32 28 c-46 39 -107 81 -161 109 -26 14 -49
28 -52 33 -3 4 -16 13 -30 20 -14 7 -69 42 -122 77 -54 34 -101 63 -105 63 -5
0 -21 11 -37 25 -16 14 -35 25 -42 25 -7 0 -14 4 -16 8 -2 7 -109 77 -176 117
-9 6 -50 31 -90 58 -40 26 -77 47 -81 47 -5 0 -11 4 -13 8 -2 6 -74 53 -223
145 -10 7 -25 17 -31 22 -7 6 -36 24 -64 40 -29 17 -65 40 -80 53 -15 12 -33
22 -39 22 -6 0 -11 4 -11 8 0 5 -18 17 -40 27 -22 10 -40 22 -40 26 0 4 -8 10
-18 13 -20 7 -141 83 -183 115 -22 17 -125 62 -139 60 -3 0 -25 -10 -50 -22z"/>
</g>
</svg>
