<svg xmlns="http://www.w3.org/2000/svg"
     width="88.8155mm" height="88.8155mm"
     viewBox="0 0 1049 1049">
  <path id="Selection"
        fill="#ff8a4f" stroke-width="1"
        d="M 130.00,0.08
           C 130.00,0.08 161.00,0.08 161.00,0.08
             161.00,0.08 218.00,0.08 218.00,0.08
             218.00,0.08 390.00,0.08 390.00,0.08
             390.00,0.08 911.00,0.08 911.00,0.08
             962.27,0.08 1010.31,29.30 1033.74,75.00
             1042.59,92.27 1046.77,109.79 1048.09,129.00
             1048.09,129.00 1049.00,141.00 1049.00,141.00
             1049.00,141.00 1049.00,636.00 1049.00,636.00
             1049.00,636.00 1049.00,818.00 1049.00,818.00
             1049.00,818.00 1049.00,910.00 1049.00,910.00
             1049.00,910.00 1048.09,920.00 1048.09,920.00
             1046.77,938.82 1042.68,956.02 1034.19,973.00
             1016.53,1008.32 983.30,1034.99 945.00,1044.53
             936.58,1046.62 928.56,1047.35 920.00,1048.17
             920.00,1048.17 909.00,1049.00 909.00,1049.00
             909.00,1049.00 413.00,1049.00 413.00,1049.00
             413.00,1049.00 230.00,1049.00 230.00,1049.00
             230.00,1049.00 138.00,1049.00 138.00,1049.00
             138.00,1049.00 128.00,1048.09 128.00,1048.09
             55.87,1043.05 0.11,983.43 0.00,911.00
             0.00,911.00 0.00,412.00 0.00,412.00
             0.00,412.00 0.00,228.00 0.00,228.00
             0.00,228.00 0.00,135.00 0.00,135.00
             0.00,135.00 0.83,126.00 0.83,126.00
             5.89,75.41 34.30,33.70 81.00,12.31
             92.41,7.08 107.53,2.82 120.00,1.29
             120.00,1.29 130.00,0.08 130.00,0.08 Z
           M 124.00,9.06
           C 109.19,11.46 95.57,14.64 82.00,21.26
             49.83,36.94 26.20,64.11 15.00,98.00
             11.56,108.41 9.02,120.02 9.00,131.00
             9.00,131.00 9.00,430.00 9.00,430.00
             9.00,430.00 9.00,918.00 9.00,918.00
             9.02,928.98 11.56,940.59 15.00,951.00
             28.65,992.30 61.11,1023.60 103.00,1035.42
             112.14,1038.00 122.50,1039.99 132.00,1040.00
             132.00,1040.00 638.00,1040.00 638.00,1040.00
             638.00,1040.00 825.00,1040.00 825.00,1040.00
             825.00,1040.00 919.00,1040.00 919.00,1040.00
             926.61,1039.91 938.59,1037.51 946.00,1035.42
             990.90,1022.75 1025.12,987.21 1036.37,942.00
             1038.41,933.80 1039.99,925.47 1040.00,917.00
             1040.00,917.00 1040.00,411.00 1040.00,411.00
             1040.00,411.00 1040.00,224.00 1040.00,224.00
             1040.00,224.00 1040.00,130.00 1040.00,130.00
             1039.91,122.39 1037.51,110.41 1035.42,103.00
             1023.61,61.15 992.25,28.63 951.00,15.00
             940.59,11.56 928.98,9.02 918.00,9.06
             918.00,9.06 390.00,9.06 390.00,9.06
             390.00,9.06 214.00,9.06 214.00,9.06
             214.00,9.06 156.00,9.06 156.00,9.06
             156.00,9.06 124.00,9.06 124.00,9.06 Z
           M 88.00,900.00
           C 88.04,890.02 89.78,890.50 94.46,882.00
             94.46,882.00 109.90,855.83 109.90,855.83
             109.90,855.83 163.29,762.00 163.29,762.00
             163.29,762.00 171.49,748.91 171.49,748.91
             171.49,748.91 228.27,650.83 228.27,650.83
             228.27,650.83 244.80,621.00 244.80,621.00
             244.80,621.00 254.27,605.83 254.27,605.83
             254.27,605.83 263.43,589.00 263.43,589.00
             263.43,589.00 301.54,524.00 301.54,524.00
             301.54,524.00 308.42,511.00 308.42,511.00
             308.42,511.00 327.54,479.00 327.54,479.00
             327.54,479.00 350.17,439.04 350.17,439.04
             350.17,439.04 419.72,319.00 419.72,319.00
             419.72,319.00 460.00,250.00 460.00,250.00
             460.00,250.00 494.86,189.00 494.86,189.00
             494.86,189.00 512.20,159.00 512.20,159.00
             515.88,152.82 516.24,149.01 524.00,149.01
             532.02,149.01 532.94,153.72 536.51,160.00
             536.51,160.00 553.77,190.00 553.77,190.00
             553.77,190.00 566.83,212.00 566.83,212.00
             566.83,212.00 614.72,296.00 614.72,296.00
             614.72,296.00 628.28,319.00 628.28,319.00
             628.28,319.00 650.42,357.00 650.42,357.00
             650.42,357.00 674.23,399.00 674.23,399.00
             674.23,399.00 739.58,511.00 739.58,511.00
             739.58,511.00 746.61,524.00 746.61,524.00
             746.61,524.00 847.72,698.00 847.72,698.00
             847.72,698.00 867.03,732.00 867.03,732.00
             867.03,732.00 905.71,799.00 905.71,799.00
             905.71,799.00 937.64,854.91 937.64,854.91
             937.64,854.91 943.27,864.00 943.27,864.00
             943.27,864.00 953.54,882.00 953.54,882.00
             958.22,890.50 959.96,890.02 960.00,900.00
             960.00,900.00 88.00,900.00 88.00,900.00 Z
           M 542.00,236.00
           C 539.09,239.96 540.00,245.26 540.00,250.00
             540.00,250.00 540.00,279.00 540.00,279.00
             540.00,279.00 540.00,396.00 540.00,396.00
             540.00,396.00 540.00,591.00 540.00,591.00
             540.01,596.55 540.98,610.43 543.65,614.96
             547.19,620.99 557.94,625.90 564.00,629.83
             564.00,629.83 615.83,662.73 615.83,662.73
             615.83,662.73 713.00,724.68 713.00,724.68
             713.00,724.68 801.00,780.89 801.00,780.89
             801.00,780.89 841.96,806.45 841.96,806.45
             841.96,806.45 861.00,818.71 861.00,818.71
             867.60,822.63 877.03,829.71 884.00,832.00
             884.00,832.00 872.27,809.00 872.27,809.00
             872.27,809.00 845.20,760.00 845.20,760.00
             845.20,760.00 830.29,735.00 830.29,735.00
             830.29,735.00 823.99,723.00 823.99,723.00
             823.99,723.00 814.75,708.00 814.75,708.00
             814.75,708.00 773.57,636.96 773.57,636.96
             773.57,636.96 738.72,576.00 738.72,576.00
             738.72,576.00 667.57,453.00 667.57,453.00
             667.57,453.00 654.12,430.58 654.12,430.58
             654.12,430.58 645.56,415.00 645.56,415.00
             645.56,415.00 612.86,359.00 612.86,359.00
             612.86,359.00 578.70,299.17 578.70,299.17
             578.70,299.17 542.00,236.00 542.00,236.00 Z
           M 508.00,238.00
           C 508.00,238.00 493.19,259.99 493.19,259.99
             493.19,259.99 467.83,303.00 467.83,303.00
             467.83,303.00 455.01,324.58 455.01,324.58
             455.01,324.58 428.44,370.42 428.44,370.42
             428.44,370.42 400.14,419.99 400.14,419.99
             400.14,419.99 334.67,533.00 334.67,533.00
             334.67,533.00 310.50,574.00 310.50,574.00
             310.50,574.00 243.72,690.00 243.72,690.00
             243.72,690.00 236.60,701.42 236.60,701.42
             236.60,701.42 200.50,763.99 200.50,763.99
             200.50,763.99 187.67,788.00 187.67,788.00
             187.67,788.00 163.00,833.00 163.00,833.00
             163.00,833.00 206.00,806.59 206.00,806.59
             206.00,806.59 224.00,795.72 224.00,795.72
             224.00,795.72 265.00,769.34 265.00,769.34
             265.00,769.34 273.58,764.40 273.58,764.40
             273.58,764.40 289.00,754.20 289.00,754.20
             289.00,754.20 357.00,710.69 357.00,710.69
             357.00,710.69 432.17,662.73 432.17,662.73
             432.17,662.73 449.72,651.95 449.72,651.95
             449.72,651.95 482.00,631.15 482.00,631.15
             488.35,627.14 500.44,621.03 504.27,615.00
             507.05,610.61 507.99,596.49 508.00,591.00
             508.00,591.00 508.00,238.00 508.00,238.00 Z
           M 543.00,654.00
           C 541.14,658.69 542.06,671.32 542.00,677.00
             542.00,677.00 541.05,687.00 541.05,687.00
             541.05,687.00 541.05,713.00 541.05,713.00
             541.32,715.51 542.02,722.76 543.17,724.57
             544.52,726.68 549.78,729.95 552.00,731.42
             552.00,731.42 566.00,741.05 566.00,741.05
             566.00,741.05 581.00,751.47 581.00,751.47
             581.00,751.47 613.00,771.93 613.00,771.93
             613.00,771.93 725.00,843.05 725.00,843.05
             725.00,843.05 749.00,857.65 749.00,857.65
             763.04,866.30 764.44,869.97 782.00,870.00
             782.00,870.00 879.00,870.00 879.00,870.00
             873.76,863.04 865.19,859.58 858.00,854.99
             858.00,854.99 822.83,832.22 822.83,832.22
             815.99,827.86 805.74,822.45 800.00,817.00
             800.00,817.00 779.00,804.29 779.00,804.29
             779.00,804.29 761.00,792.59 761.00,792.59
             761.00,792.59 723.00,768.50 723.00,768.50
             723.00,768.50 630.00,709.47 630.00,709.47
             630.00,709.47 561.00,665.54 561.00,665.54
             561.00,665.54 543.00,654.00 543.00,654.00 Z
           M 508.00,655.00
           C 501.46,656.59 492.15,663.47 486.00,667.20
             486.00,667.20 440.00,696.27 440.00,696.27
             440.00,696.27 421.00,707.63 421.00,707.63
             421.00,707.63 356.00,749.21 356.00,749.21
             356.00,749.21 313.00,776.33 313.00,776.33
             313.00,776.33 268.00,804.96 268.00,804.96
             263.07,808.03 253.13,816.12 248.00,817.00
             241.52,823.16 232.65,827.39 225.17,832.23
             225.17,832.23 190.00,854.97 190.00,854.97
             183.10,859.51 173.93,863.46 169.00,870.00
             169.00,870.00 271.00,870.00 271.00,870.00
             274.55,869.99 277.52,870.06 281.00,869.06
             285.21,867.86 290.09,864.52 294.00,862.28
             294.00,862.28 322.00,844.63 322.00,844.63
             322.00,844.63 430.09,775.19 430.09,775.19
             430.09,775.19 446.00,765.37 446.00,765.37
             446.00,765.37 480.00,743.23 480.00,743.23
             484.81,740.23 501.67,730.57 504.28,726.90
             507.22,722.76 507.99,710.25 508.00,705.00
             508.00,705.00 508.00,655.00 508.00,655.00 Z
           M 705.00,870.00
           C 699.76,863.41 692.09,859.67 685.04,855.39
             685.04,855.39 655.04,836.44 655.04,836.44
             655.04,836.44 616.00,811.37 616.00,811.37
             616.00,811.37 571.00,782.74 571.00,782.74
             571.00,782.74 540.00,763.06 540.00,763.06
             535.58,760.24 528.56,755.21 523.00,755.59
             518.26,755.92 511.04,761.21 507.00,763.70
             507.00,763.70 474.00,784.92 474.00,784.92
             474.00,784.92 386.00,841.14 386.00,841.14
             374.53,848.47 351.42,861.06 343.00,870.00
             343.00,870.00 705.00,870.00 705.00,870.00 Z
           M 885.00,832.00
           C 885.00,832.00 884.00,832.00 884.00,832.00
             884.00,832.00 885.00,833.00 885.00,833.00
             885.00,833.00 885.00,832.00 885.00,832.00 Z" />
</svg>
